<svg id="Layer_1_copy" height="512" viewBox="0 0 512 512" width="512" xmlns="http://www.w3.org/2000/svg" data-name="Layer 1 copy"><path d="m32 480h384a64 64 0 0 0 64-64v-320h-448z" fill="#064186"/><path d="m32 440h376a32 32 0 0 0 32-32v-192h-408z" fill="#fcc42d"/><path d="m32 96h408v120h-408z" fill="#0a529b"/><path d="m360 124.282a32 32 0 1 1 -32 0z" fill="#022b69"/><path d="m64 240h24v16h-24z" fill="#fcfbfa"/><path d="m96 240h24v16h-24z" fill="#fcfbfa"/><g fill="#0a529b"><path d="m167.502 320h128.996v16.001h-128.996z" transform="matrix(.496 -.868 .868 .496 -167.888 366.702)"/><circle cx="192" cy="312" r="16"/><circle cx="272" cy="344" r="16"/></g><rect fill="#fcc42d" height="112" rx="8" width="32" x="328" y="40"/><path d="m360 58.557v-10.557a8 8 0 0 0 -8-8h-16a8 8 0 0 0 -8 8v39.783a109.3 109.3 0 0 0 32-29.226z" fill="#fcfbfa" opacity=".3"/><path d="m240 96-144 344h-64v-344z" fill="#fcfbfa" opacity=".3"/><path d="m152 124.282a32 32 0 1 1 -32 0z" fill="#022b69"/><rect fill="#fcc42d" height="112" rx="8" width="32" x="120" y="40"/><path d="m152 58.557v-10.557a8 8 0 0 0 -8-8h-16a8 8 0 0 0 -8 8v39.783a109.3 109.3 0 0 0 32-29.226z" fill="#fcfbfa" opacity=".3"/></svg>